<svg width="124" height="56" viewBox="0 0 124 56" fill="none" xmlns="http://www.w3.org/2000/svg">
<path d="M21.1212 24.0633C21.1212 22.1652 20.1796 21.1829 18.5928 21.1829C17.006 21.1829 16.0682 22.0658 14.3139 23.7233V37.7198H9.4624V17.4577H14.3139V20.4755C15.9317 18.9125 18.121 17.0485 21.0543 17.0485C24.9952 17.0485 25.9707 20.0312 25.9707 23.0139V37.7198H21.1202V24.0633H21.1212Z" fill="#858489"/>
<path d="M40.5235 23.0139C40.2532 22.0268 39.7504 20.304 37.0215 20.304C35.7069 20.304 34.3913 20.9803 34.3913 22.5705C34.3913 24.0643 35.6381 24.4706 36.5148 24.7737L40.3898 26.0619C43.1187 26.9447 44.938 28.573 44.938 31.5839C44.938 36.838 40.723 38.1252 36.3472 38.1252C31.1567 38.1252 29.6096 34.7381 29.2037 32.9754L33.349 31.6892C33.8876 33.5522 34.8302 34.6709 37.0515 34.6709C39.2728 34.6709 40.0866 33.144 40.0866 32.1296C40.1205 30.6378 39.0055 30.1632 37.8604 29.8202L34.7624 28.839C31.8988 27.9581 29.7424 26.2996 29.7424 23.2175C29.7424 18.8122 33.2453 17.0485 37.0205 17.0485C41.6007 17.0485 43.8249 19.3208 44.5641 21.7608L40.5225 23.0149L40.5235 23.0139Z" fill="#858489"/>
<path d="M73.6038 38.1242C67.9434 38.1242 64.3746 34.1272 64.3746 27.5196C64.3746 21.3174 67.9783 17.0485 73.6038 17.0485C76.7309 17.0485 79.113 18.2762 80.6843 20.3313C77.3664 8.60122 66.656 0 53.9277 0C48.6239 0 43.6678 1.49379 39.4431 4.08672H46.9363L53.0898 14.8112H47.4943V17.4577H62.1843V20.7396L52.3477 34.2626H62.5195V37.7199H47.4953V41.1868H53.0907L46.9373 51.9074H39.4441C43.6649 54.5023 48.6248 56 53.9287 56C67.2024 56 78.2848 46.6436 81.0699 34.1418C79.4434 36.6811 76.8123 38.1233 73.6048 38.1233M69.4247 27.5859C69.4247 32.7016 71.0434 34.6699 73.6048 34.6699C76.1661 34.6699 77.7781 32.7016 77.7781 27.5859C77.7781 22.4702 76.1642 20.5047 73.6048 20.5047C71.0454 20.5047 69.4247 22.6076 69.4247 27.5859ZM47.4953 20.9101V33.2122L56.3922 20.9101H47.4953Z" fill="#6F8CC0"/>
<path d="M97.923 24.0633C97.923 22.1652 96.9824 21.1829 95.3956 21.1829C93.8088 21.1829 92.872 22.0658 91.1215 23.7233V37.7198H86.27V17.4577H91.1215V20.4755C92.7354 18.9125 94.9228 17.0485 97.8552 17.0485C101.796 17.0485 102.774 20.0312 102.774 23.0139V37.7198H97.923V24.0633Z" fill="#858489"/>
<path d="M123.258 33.0095C122.177 35.6853 120.022 38.1242 115.441 38.1242C109.781 38.1242 106.209 34.1272 106.209 27.5196C106.209 21.3174 109.544 17.0485 115.474 17.0485C121.404 17.0485 124 21.6234 124 26.9778V28.8058H111.062C111.062 31.2117 111.87 34.6699 115.339 34.6699C117.533 34.6699 118.811 32.9072 119.148 31.6492L123.258 33.0085V33.0095ZM119.148 25.5532C119.148 22.3016 117.695 20.4375 115.304 20.5057C112.341 20.4375 111.229 22.9466 111.062 25.5532H119.148Z" fill="#858489"/>
<path d="M87.3676 42.5111V47.3276H86.2875V42.5111H87.3676Z" fill="#6F8CC0"/>
<path d="M88.3057 47.3286V42.512H89.5708L90.5657 44.2777C90.8505 44.7854 91.1276 45.3856 91.3475 45.9284H91.362C91.2981 45.2921 91.2768 44.6421 91.2768 43.9133V42.513H92.2717V47.3296H91.1344L90.1114 45.4714C89.8266 44.95 89.5079 44.3352 89.2802 43.771H89.2521C89.288 44.4141 89.3025 45.0933 89.3025 45.8796V47.3306H88.3076L88.3057 47.3286Z" fill="#6F8CC0"/>
<path d="M93.2442 46.207C93.529 46.3571 93.9833 46.5072 94.4454 46.5072C94.9424 46.5072 95.2059 46.2996 95.2059 45.9859C95.2059 45.6721 94.9782 45.5142 94.4028 45.3135C93.6065 45.028 93.0814 44.5846 93.0814 43.884C93.0814 43.0616 93.7702 42.4399 94.893 42.4399C95.4403 42.4399 95.8307 42.5471 96.1146 42.6826L95.8733 43.5547C95.6883 43.4621 95.3405 43.3257 94.8784 43.3257C94.4164 43.3257 94.1819 43.5469 94.1819 43.7905C94.1819 44.0974 94.4445 44.2338 95.0703 44.4697C95.916 44.7844 96.3064 45.2278 96.3064 45.9059C96.3064 46.7137 95.6951 47.3997 94.3805 47.3997C93.8332 47.3997 93.2936 47.2497 93.0233 47.0996L93.2432 46.2061L93.2442 46.207Z" fill="#6F8CC0"/>
<path d="M98.1258 42.5111V45.2765C98.1258 46.1125 98.4455 46.5345 98.9928 46.5345C99.5402 46.5345 99.8734 46.134 99.8734 45.2765V42.5111H100.954V45.2122C100.954 46.6991 100.208 47.4066 98.957 47.4066C97.7063 47.4066 97.0457 46.7274 97.0457 45.1985V42.5111H98.1258Z" fill="#6F8CC0"/>
<path d="M101.891 42.5832C102.24 42.5189 102.752 42.476 103.334 42.476C104.045 42.476 104.542 42.5832 104.883 42.8619C105.174 43.0908 105.33 43.426 105.33 43.8694C105.33 44.4765 104.897 44.8984 104.485 45.0485V45.0699C104.819 45.2053 105.004 45.5201 105.124 45.9634C105.273 46.514 105.415 47.1425 105.508 47.3286H104.399C104.329 47.1854 104.208 46.7995 104.072 46.207C103.936 45.6 103.731 45.4421 103.283 45.4353H102.964V47.3296H101.89V42.5841L101.891 42.5832ZM102.965 44.6489H103.391C103.931 44.6489 104.251 44.3771 104.251 43.9561C104.251 43.5352 103.953 43.2916 103.456 43.2916C103.193 43.2916 103.044 43.3062 102.966 43.3276V44.6499L102.965 44.6489Z" fill="#6F8CC0"/>
<path d="M107.277 46.0921L106.943 47.3286H105.82L107.284 42.512H108.697L110.189 47.3286H109.023L108.654 46.0921H107.276H107.277ZM108.492 45.2775L108.193 44.2553C108.115 43.9698 108.03 43.6053 107.959 43.3267H107.937C107.874 43.6122 107.795 43.9766 107.724 44.2553L107.434 45.2775H108.493H108.492Z" fill="#6F8CC0"/>
<path d="M110.829 47.3286V42.512H112.094L113.089 44.2777C113.374 44.7854 113.651 45.3856 113.871 45.9284H113.885C113.822 45.2921 113.8 44.6421 113.8 43.9133V42.513H114.795V47.3296H113.658L112.635 45.4714C112.35 44.95 112.031 44.3352 111.804 43.771H111.776C111.811 44.4141 111.826 45.0933 111.826 45.8796V47.3306H110.831L110.829 47.3286Z" fill="#6F8CC0"/>
<path d="M119.242 47.1922C119.05 47.2857 118.596 47.3997 118.02 47.3997C116.365 47.3997 115.512 46.3561 115.512 44.9841C115.512 43.3481 116.678 42.4399 118.127 42.4399C118.688 42.4399 119.115 42.5539 119.307 42.6475L119.079 43.5128C118.866 43.4192 118.56 43.3345 118.17 43.3345C117.317 43.3345 116.649 43.8567 116.649 44.9286C116.649 45.8865 117.217 46.4935 118.176 46.4935C118.511 46.4935 118.865 46.4292 119.086 46.3366L119.242 47.1941V47.1922Z" fill="#6F8CC0"/>
<path d="M122.809 45.2921H121.047V46.436H123.015V47.3296H119.968V42.513H122.916V43.4066H121.048V44.4073H122.81V45.294L122.809 45.2921Z" fill="#6F8CC0"/>
<path d="M86.3177 54.7829C86.6025 54.933 87.0568 55.0831 87.5189 55.0831C88.0159 55.0831 88.2794 54.8755 88.2794 54.5617C88.2794 54.248 88.0517 54.0901 87.4763 53.8894C86.681 53.6039 86.1549 53.1605 86.1549 52.4599C86.1549 51.6375 86.8437 51.0158 87.9665 51.0158C88.5138 51.0158 88.9042 51.123 89.188 51.2585L88.9468 52.1306C88.7618 52.038 88.414 51.9016 87.9519 51.9016C87.4899 51.9016 87.2554 52.1228 87.2554 52.3664C87.2554 52.6733 87.5179 52.8097 88.1438 53.0455C88.9895 53.3603 89.3799 53.8036 89.3799 54.4818C89.3799 55.2896 88.7686 55.9756 87.454 55.9756C86.9067 55.9756 86.3671 55.8256 86.0968 55.6755L86.3167 54.782L86.3177 54.7829Z" fill="#6F8CC0"/>
<path d="M92.9685 53.868H91.2064V55.0119H93.1749V55.9055H90.1272V51.0889H93.076V51.9825H91.2073V52.9832H92.9695V53.8699L92.9685 53.868Z" fill="#6F8CC0"/>
<path d="M93.9123 51.1591C94.2611 51.0948 94.7726 51.0519 95.3548 51.0519C96.0659 51.0519 96.5628 51.1591 96.9038 51.4378C97.1954 51.6667 97.3514 52.0029 97.3514 52.4453C97.3514 53.0524 96.9183 53.4743 96.5057 53.6244V53.6458C96.8399 53.7812 97.0249 54.096 97.145 54.5393C97.2942 55.0899 97.4357 55.7184 97.5287 55.9045H96.4204C96.3497 55.7613 96.2286 55.3754 96.093 54.7829C95.9574 54.1759 95.752 54.018 95.3044 54.0112H94.9847V55.9055H93.9114V51.16L93.9123 51.1591ZM94.9857 53.2248H95.412C95.9515 53.2248 96.2722 52.953 96.2722 52.532C96.2722 52.1111 95.9738 51.8675 95.4759 51.8675C95.2134 51.8675 95.0642 51.8821 94.9857 51.9035V53.2258V53.2248Z" fill="#6F8CC0"/>
<path d="M99.2199 55.9045L97.6854 51.0879H98.8721L99.4543 53.1245C99.6181 53.7033 99.7673 54.246 99.8806 54.8473H99.9019C100.023 54.2684 100.172 53.6965 100.336 53.1469L100.947 51.0889H102.098L100.485 55.9055H99.2199V55.9045Z" fill="#6F8CC0"/>
<path d="M103.697 51.0879V55.9045H102.617V51.0879H103.697Z" fill="#6F8CC0"/>
<path d="M108.145 55.7691C107.953 55.8626 107.499 55.9766 106.923 55.9766C105.268 55.9766 104.415 54.933 104.415 53.561C104.415 51.925 105.581 51.0168 107.03 51.0168C107.591 51.0168 108.018 51.1308 108.21 51.2244L107.982 52.0896C107.769 51.9961 107.463 51.9113 107.073 51.9113C106.22 51.9113 105.552 52.4336 105.552 53.5055C105.552 54.4633 106.12 55.0704 107.079 55.0704C107.414 55.0704 107.768 55.0061 107.989 54.9135L108.145 55.771V55.7691Z" fill="#6F8CC0"/>
<path d="M111.712 53.868H109.95V55.0119H111.918V55.9055H108.87V51.0889H111.819V51.9825H109.951V52.9832H111.713V53.8699L111.712 53.868Z" fill="#6F8CC0"/>
<path d="M112.693 54.7829C112.978 54.933 113.432 55.0831 113.894 55.0831C114.391 55.0831 114.654 54.8755 114.654 54.5618C114.654 54.248 114.427 54.0901 113.851 53.8894C113.056 53.6039 112.53 53.1605 112.53 52.4599C112.53 51.6375 113.219 51.0158 114.342 51.0158C114.889 51.0158 115.279 51.123 115.563 51.2585L115.322 52.1306C115.137 52.038 114.789 51.9016 114.327 51.9016C113.865 51.9016 113.631 52.1228 113.631 52.3664C113.631 52.6733 113.893 52.8097 114.519 53.0456C115.365 53.3603 115.755 53.8037 115.755 54.4818C115.755 55.2896 115.144 55.9756 113.829 55.9756C113.282 55.9756 112.742 55.8256 112.472 55.6755L112.692 54.782L112.693 54.7829Z" fill="#6F8CC0"/>
<path d="M0 11.39H4.85048V15.0149H0V11.39ZM0 17.4577H4.85048V37.7199H0V17.4577Z" fill="#858489"/>
</svg>
